<svg width="64" height="64" viewBox="0 0 64 64" fill="none" xmlns="http://www.w3.org/2000/svg">
<g clip-path="url(#clip0_1_6)">
<path d="M16.6389 34.304C16.7136 34.6027 16.8443 34.92 17.0309 35.256C17.2176 35.5547 17.5163 35.704 17.9269 35.704C18.2256 35.704 18.5989 35.536 19.0469 35.2L26.2709 29.88L28.3989 32.68L21.5109 37.944C20.9883 38.3547 20.4283 38.7093 19.8309 39.008C19.2709 39.3067 18.5616 39.456 17.7029 39.456C16.2469 39.456 15.2016 39.0827 14.5669 38.336C13.9323 37.552 13.4096 36.5067 12.9989 35.2C12.9243 34.864 12.7936 34.528 12.6069 34.192C12.4576 33.8187 12.1589 33.632 11.7109 33.632C11.3749 33.632 10.9456 33.8373 10.4229 34.248L3.36694 39.456L1.23894 36.656L8.12694 31.392C8.68694 30.944 9.2656 30.5893 9.86294 30.328C10.4603 30.0293 11.1509 29.88 11.9349 29.88C13.3536 29.88 14.3803 30.2907 15.0149 31.112C15.6869 31.896 16.2283 32.96 16.6389 34.304ZM50.704 17.952C52.0107 18.176 53.1867 18.568 54.232 19.128C55.3147 19.6507 56.2293 20.304 56.976 21.088C57.7227 21.872 58.3013 22.7493 58.712 23.72C59.1227 24.6533 59.328 25.6427 59.328 26.688V27.696H55.072V27.024C55.072 25.792 54.6613 24.7467 53.84 23.888C53.056 23.0293 52.0107 22.432 50.704 22.096V30.104C53.8027 30.4773 56.1547 31.336 57.76 32.68C59.4027 33.9867 60.224 35.7973 60.224 38.112V38.448C60.224 40.9493 59.3467 42.9653 57.592 44.496C55.8747 45.9893 53.5787 46.8293 50.704 47.016V50.432H46.672V46.904C45.0293 46.6427 43.6107 46.1947 42.416 45.56C41.2587 44.888 40.288 44.104 39.504 43.208C38.7573 42.2747 38.1973 41.2853 37.824 40.24C37.4507 39.1573 37.264 38.0747 37.264 36.992V35.648H41.52V36.32C41.52 38.112 41.968 39.5493 42.864 40.632C43.76 41.7147 45.0293 42.4427 46.672 42.816V33.688C43.872 33.3147 41.7253 32.512 40.232 31.28C38.776 30.0107 38.048 28.256 38.048 26.016V25.68C38.048 24.4853 38.272 23.44 38.72 22.544C39.2053 21.6107 39.84 20.8267 40.624 20.192C41.408 19.52 42.3227 18.9973 43.368 18.624C44.4133 18.2133 45.5147 17.952 46.672 17.84V14.368H50.704V17.952ZM55.856 38.448C55.856 37.1413 55.4453 36.1707 54.624 35.536C53.8027 34.9013 52.496 34.4347 50.704 34.136V42.984C52.3093 42.7973 53.56 42.312 54.456 41.528C55.3893 40.744 55.856 39.7173 55.856 38.448ZM42.416 25.68C42.416 26.7253 42.7147 27.584 43.312 28.256C43.9467 28.8907 45.0667 29.3573 46.672 29.656V21.872C45.4773 22.0587 44.4693 22.4693 43.648 23.104C42.8267 23.7387 42.416 24.5973 42.416 25.68Z" fill="#C6A0F6"/>
</g>
<defs>
<clipPath id="clip0_1_6">
<rect width="64" height="64" fill="white"/>
</clipPath>
</defs>
</svg>
